<svg width="16" height="14" viewBox="0 0 16 14" fill="none" xmlns="http://www.w3.org/2000/svg">
<path d="M14.7486 4.37305H1.25161C0.824861 4.37305 0.50086 4.72105 0.50086 5.1223C0.50086 5.2108 0.42211 4.6858 1.77136 13.1165C1.82911 13.481 2.14336 13.748 2.51236 13.748H13.4886C13.8576 13.748 14.1719 13.481 14.2296 13.1165C15.5804 4.67905 15.4994 5.21155 15.4994 5.12155C15.4994 4.70305 15.1574 4.37305 14.7486 4.37305ZM14.0256 2.1103H2.00311C1.61011 2.1103 1.25236 2.4268 1.25236 2.86555C1.25236 2.9263 1.24486 2.87755 1.35736 3.62305H14.6714C14.7854 2.86405 14.7756 2.9248 14.7756 2.8663C14.7756 2.4313 14.4239 2.1103 14.0256 2.1103ZM2.04586 1.3603H13.9829C14.0264 1.0333 14.0241 1.0408 14.0241 0.998797C14.0241 0.495547 13.5929 0.248047 13.2734 0.248047H2.75536C2.35336 0.248047 2.00461 0.572797 2.00461 0.998047C2.00461 1.04005 2.00161 1.0303 2.04586 1.3603Z" fill="#3A3541"/>
</svg>
